# xmcd CD database file
#
# Track frame offsets:
#	150
#	23229
#	40500
#	59278
#	77794
#	95189
#	113622
#	131180
#	148657
#	170786
#	191789
#
# Disc length: 2811 seconds
#
# Revision: 0
# Processed by: cddbd v1.5PL3 Copyright (c) Steve Scherf et al.
# Submitted via: CDex 1.50beta10
#
DISCID=9d0af90b
DTITLE=山口百恵 - Disc17 A Face in a Vision
DYEAR=2003
DGENRE=JPop
TTITLE0=マホガニー・モーニング
TTITLE1=愛の行方
TTITLE2=悲しきドラマー・マン
TTITLE3=おだやかな構図
TTITLE4=美・サイレント
TTITLE5=ディ・ドゥリーム
TTITLE6=ギャルソン・アミ
TTITLE7=喰べられてしまった貘
TTITLE8=水曜日のクオレ
TTITLE9=想い出のミラージュ
TTITLE10=夜へ…
EXTD=YEAR: 2003
EXTT0=
EXTT1=
EXTT2=
EXTT3=
EXTT4=
EXTT5=
EXTT6=
EXTT7=
EXTT8=
EXTT9=
EXTT10=
PLAYORDER=
